<?xml version="1.0" encoding="utf-8"?>
<!-- Generator: Adobe Illustrator 17.1.0, SVG Export Plug-In . SVG Version: 6.00 Build 0)  -->
<!DOCTYPE svg PUBLIC "-//W3C//DTD SVG 1.1//EN" "http://www.w3.org/Graphics/SVG/1.1/DTD/svg11.dtd">
<svg version="1.1" id="Layer_1" xmlns="http://www.w3.org/2000/svg" xmlns:xlink="http://www.w3.org/1999/xlink" x="0px" y="0px"
	 viewBox="0 157 512 129" enable-background="new 0 157 512 129" xml:space="preserve">
<rect x="5.7" y="170.1" fill="#FFFFFF" stroke="#009D66" stroke-width="3" stroke-miterlimit="10" width="500.6" height="106.3"/>
<path fill="none" stroke="#009D66" stroke-width="3" stroke-miterlimit="10" d="M23.4,219.5c13.4-0.3,28.1-0.3,41.8,0"/>
<line fill="none" stroke="#009D66" stroke-width="3" stroke-miterlimit="10" x1="126.4" y1="219.5" x2="85.2" y2="219.5"/>
<rect x="68.1" y="240.7" fill="none" width="355" height="71.5"/>
<text transform="matrix(1 0 0 1 130.7281 236.673)" fill="#0EAA6C" font-family="'Montserrat-ExtraBold'" font-size="50.6931">МЕДТЕХНІКА</text>
<path fill="#009D66" d="M96.2,183.1c-10.9,0-17,6.1-21.3,10.9c-4.2-4.8-10.3-10.9-21.3-10.9c-13.3,0-24,10.7-24,24
	c0,15.9,9.3,25.9,43.7,53.9l1.6,1.4l1.6-1.4c34.3-28,43.7-37.8,43.7-53.9C120.2,193.8,109.5,183.1,96.2,183.1z M74.9,255.3
	C43.4,229.8,35,220.7,35,207.1c0-10.3,8.2-18.7,18.7-18.7c9.3,0,14.4,5.6,18.4,10.1l3,3.5l3-3.5c4-4.5,9.1-10.1,18.4-10.1
	c10.3,0,18.7,8.2,18.7,18.7C114.9,220.7,106.3,229.8,74.9,255.3z"/>
<line fill="none" stroke="#009D66" stroke-width="3" stroke-miterlimit="10" x1="63.8" y1="219.5" x2="68.9" y2="235.6"/>
<line fill="none" stroke="#009D66" stroke-width="3" stroke-miterlimit="10" x1="81.3" y1="204.2" x2="86.9" y2="220.8"/>
<line fill="none" stroke="#009D66" stroke-width="3" stroke-miterlimit="10" x1="68.9" y1="236.6" x2="81.3" y2="203.1"/>
</svg>
